<?xml version="1.0" encoding="UTF-8"?>
<svg id="Layer_1" data-name="Layer 1" xmlns="http://www.w3.org/2000/svg" viewBox="0 0 140 99">
  <defs>
    <style>
      .cls-1 {
        fill: #fff;
      }
    </style>
  </defs>
  <path class="cls-1" d="m116.95,10.23c-14.51,1.23-28.92,3.67-43.02,7.34s-27.67,8.29-40.67,14.4c-11.54,5.42-22.83,13.56-26.39,26.46-1.62,5.87-1.17,12.07,1.52,17.55,2.53,5.15,6.84,9.35,11.7,12.32,11.86,7.22,26.59,6.52,39.88,5.29,14.2-1.31,28.64-3.58,42.3-7.76,10.38-3.18,20.99-8.1,27.57-17.08,7.11-9.69,6.95-22.45,1.78-32.97-5.52-11.25-16.38-18.56-28.14-22.09-13.72-4.11-28.21-3.11-42.19-1.05-3.73.55-7.44,1.18-11.16,1.8-1.9.32-1.09,3.21.8,2.89,13.94-2.36,28.3-4.83,42.45-2.8,11.66,1.68,23.47,6.47,31.15,15.73,6.95,8.38,10.2,20.55,6.1,30.93-3.9,9.87-13.48,15.92-22.97,19.6-5.29,2.05-10.77,3.5-16.3,4.77-7.01,1.6-14.08,2.89-21.2,3.87-6.93.95-13.93,1.65-20.93,1.87s-13.61-.17-20.1-2.2c-10.27-3.22-20.03-11.8-20.25-23.25-.24-12.79,9.73-22.55,20.12-28.36,5.68-3.18,11.75-5.67,17.81-8.03,6.44-2.5,12.98-4.73,19.6-6.7,13.18-3.91,26.69-6.77,40.33-8.48,3.39-.42,6.78-.77,10.19-1.06,1.91-.16,1.93-3.16,0-3h0Z"/>
</svg>
