<?xml version="1.0" encoding="UTF-8"?>
<svg id="Layer_1" data-name="Layer 1" xmlns="http://www.w3.org/2000/svg" viewBox="0 0 113 99">
  <defs>
    <style>
      .cls-1 {
        fill: #fff;
      }
    </style>
  </defs>
  <path class="cls-1" d="m93.07,14.21c-20.77-4.82-43.64-7.45-63.16,3.13-8.19,4.44-15.26,11.18-19.13,19.74-3.73,8.26-4.82,17.98-1.71,26.62,3.17,8.82,10.34,15.32,18.53,19.5,8.79,4.48,18.82,6.9,28.66,7.33,10.04.44,20.47-1.46,29.17-6.68,7.68-4.61,13.92-11.65,17.23-20s3.06-17.35-.98-25.26c-3.77-7.38-10.71-13.52-18.91-15.36-2.04-.46-4.14-.65-6.23-.56-1.92.08-1.93,3.08,0,3,7.89-.33,15.18,3.9,19.85,10.1s6.68,14.65,4.84,22.59c-1.88,8.09-6.95,15.24-13.48,20.29-7.37,5.7-16.62,8.44-25.85,8.87-9.43.45-19.04-1.28-27.83-4.7-7.94-3.08-15.62-8.04-20.03-15.52s-4.72-16.38-2.26-24.45,8.18-15.46,15.43-20.37c16.77-11.38,37.94-10.85,57.04-7.11,2.68.52,5.35,1.11,8.02,1.73,1.88.44,2.68-2.46.8-2.89h0Z"/>
</svg>