<?xml version="1.0" encoding="UTF-8"?>
<svg id="Layer_2" data-name="Layer 2" xmlns="http://www.w3.org/2000/svg" viewBox="0 0 611.6 686.65">
  <defs>
    <style>
      .cls-1 {
        fill: #fff;
      }
    </style>
  </defs>
  <g id="Layer_1-2" data-name="Layer 1">
    <g>
      <g>
        <path class="cls-1" d="m122.77,181.47c-3.55-4.45-9.31-6.27-14.41-8.27-3.03-1.19-5.98-2.53-9.06-3.61-3.48-1.22-7.02-2.26-10.58-3.23s-7.09-1.91-10.71-2.56-7.06-1-10.57-1.73-6.83-.98-10.29-1.33c-1.66-.17-3.26-.57-4.88-.91-1.82-.38-3.6-.52-5.46-.5-3.4.04-6.83.12-10.22,0-2.29-.08-4.56-.34-6.85-.45-4.21-.21-9.98-.38-12.92,3.26-1.97,2.44-2.93,5.59-4.26,8.4-1.19,2.51-2.95,4.74-3.81,7.4s-.6,5.66-1.45,8.41c-.89,2.9-2.43,5.52-3.69,8.27-2.56,5.59-3.34,11.89-3.56,18-.23,6.55.44,13.21,2.2,19.54.87,3.13,2.18,6.04,3.39,9.04,1.34,3.31,2.42,6.72,3.68,10.07s2.93,6.54,4.9,9.66,3.45,6.04,4.93,9.21c.69,1.48,1.32,3.03,2.13,4.45s1.85,2.61,2.84,3.86c2.09,2.63,3.5,5.82,5.03,8.8,3.27,6.35,5.18,13.24,8.19,19.69,1.43,3.06,3.17,5.95,4.78,8.91.77,1.43,1.62,2.88,2.14,4.42.57,1.68.75,3.47,1.36,5.13.56,1.53,1.42,2.61,2.44,3.84s1.42,2.79,2.03,4.23c1.23,2.9,3.51,5.33,5.72,7.53,2.33,2.3,4.89,4.37,7.54,6.29,2.48,1.8,5.16,3.86,8.1,4.83,5.34,1.78,11.53.31,16.62-1.63,2.24-.85,4.67-1.75,6.66-3.11,2.31-1.58,3.67-3.9,4.95-6.32,1.64-3.11,2.76-6.41,4.21-9.61,1.33-2.92,2.83-5.77,3.57-8.91.59-2.49.87-5.56,2.56-7.61,1.22-1.48-.89-3.61-2.12-2.12-1.78,2.16-2.41,4.83-3.01,7.5-.66,2.97-1.72,5.58-3,8.34-1.48,3.2-2.61,6.56-4.2,9.71-1.1,2.2-2.24,4.76-4.26,6.28-1.79,1.33-4.09,2.17-6.16,2.96-2.63,1-5.41,1.82-8.21,2.13-2.57.29-5.35.24-7.74-.87-2.71-1.26-5.27-3.26-7.65-5.05-2.57-1.94-5.01-4.08-7.2-6.45-1.04-1.13-2.1-2.31-2.9-3.62-.75-1.22-1.15-2.6-1.71-3.9-.61-1.42-1.51-2.39-2.43-3.59-1.05-1.36-1.35-3.09-1.72-4.72-.72-3.15-2.27-5.92-3.84-8.73s-3.31-5.78-4.59-8.85-2.44-6.4-3.7-9.58c-1.22-3.07-2.52-6.12-4.05-9.05s-2.96-6.04-5.03-8.68c-.83-1.05-1.71-2.07-2.41-3.21-.92-1.51-1.59-3.2-2.34-4.8-1.41-3.03-2.91-5.99-4.69-8.82-1.9-3.02-3.58-5.97-4.84-9.32s-2.24-6.45-3.5-9.63-2.55-5.94-3.46-9.08c-.85-2.95-1.45-5.97-1.81-9.02-.72-6.23-.59-12.6.48-18.79.49-2.85,1.2-5.54,2.43-8.16s2.58-5.06,3.53-7.74c.45-1.27.78-2.58.96-3.91.21-1.5.18-3.02.54-4.5.61-2.52,2.24-4.55,3.4-6.82,1.43-2.8,2.29-6.15,4.25-8.65,1.13-1.44,3.06-1.93,4.8-2.17,4.49-.6,9.01.31,13.49.37,3.49.05,6.98-.03,10.46-.03s6.53,1.16,9.84,1.47,6.62.69,9.93,1.37,6.75,1,10.11,1.62c6.89,1.27,13.78,3.26,20.39,5.55,3.12,1.08,6.11,2.42,9.18,3.64,2.46.97,4.96,1.86,7.34,3.04s4.45,2.55,6.07,4.59c1.2,1.51,3.31-.63,2.12-2.12h0Z"/>
        <path class="cls-1" d="m110.01,316.4c-.49,5.57,3.03,10.43,4.69,15.51,2.1,6.46,4.21,12.92,6.31,19.38s4.76,12.95,6.8,19.55c1.03,3.36,2.02,6.73,3.08,10.07.91,2.88,2.27,5.59,3.16,8.46.44,1.4.67,2.85,1.17,4.24.54,1.52,1.21,3,1.77,4.52,1.16,3.14,2.39,6.23,3.63,9.34,2.55,6.41,3.89,13.17,5.91,19.75,1.02,3.33,2.14,6.62,3.05,9.98s1.72,6.67,2.83,9.94c2.15,6.31,5.19,12.27,7.25,18.62,1.86,5.72,4.14,11.33,7.19,16.52,1.48,2.51,3.22,4.83,4.66,7.37s2.66,5.04,3.92,7.59c2.56,5.23,5.15,10.49,8.86,15.02,4.39,5.37,8.89,10.64,13.06,16.18,3.4,4.51,5.84,9.7,9.65,13.92,2.09,2.31,4.66,4.12,7.11,6.01,2.72,2.1,5.44,4.19,8.16,6.29,2.89,2.23,5.77,4.46,8.62,6.73,2.6,2.07,5.09,4.34,7.81,6.25,2.42,1.69,5.07,3,7.64,4.43,2.31,1.29,4.4,3.06,6.9,3.98,4.78,1.76,10.23,1.1,15.2.81,6.07-.36,12.08-.12,18.08-1.3,3.25-.64,6.21-1.84,9.34-2.87s6.01-1.11,9.14-1.09,6.31-.03,9.46-.51,6.22-1.55,9.3-2.59c6.01-2.03,12.79-2.72,18.35-5.92,2.61-1.5,4.87-3.51,7.49-4.98,2.85-1.59,6.07-2.64,8.7-4.6,2.25-1.68,3.8-4.09,6.02-5.78s4.84-2.55,7.01-4.24c4.12-3.21,4.97-8.54,4.62-13.48-.18-2.45-.66-4.85-1.12-7.25-.58-2.98-1.06-5.9-2.34-8.69-1.43-3.14-2.78-6.32-4.18-9.47-1.24-2.78-1.96-5.8-3.35-8.52-1.23-2.43-3.3-3.51-5.46-4.98-1.84-1.26-2.24-2.67-2.03-4.83.41-4.23,2.39-8.46,4.45-12.13,6.19-11.05,6.99-23.76,7.35-36.17.42-14.38.05-28.83.05-43.22,0-7.03-.04-14.05.33-21.08s.93-14.09.94-21.16-.2-14.39-.16-21.59c.04-6.92.73-13.59,1.71-20.43.96-6.76.87-13.49,1.35-20.28s.91-13.51.92-20.33.08-13.46-.51-20.16-2.16-12.88-4.04-19.29-3.06-12.75-3.09-19.34c0-1.93-3.01-1.93-3,0,.03,6.5,1.15,12.92,2.92,19.17.88,3.11,1.96,6.16,2.67,9.32s1.21,6.51,1.51,9.81c1.2,13.18.68,26.61-.3,39.78-.5,6.74-.33,13.48-1.27,20.19-.92,6.61-1.77,13.08-1.85,19.77-.08,7.08.11,14.16.14,21.24s-.38,13.67-.78,20.5c-1.63,27.79.88,55.69-1.7,83.44-.55,5.9-2.27,11.86-5.08,17.08-2.02,3.76-3.97,7.54-5.01,11.71-.98,3.95-1.01,7.75,2.54,10.31.97.7,2.07,1.24,3.01,1.97,1.24.97,1.9,2.31,2.45,3.75,1.11,2.88,2.14,5.73,3.37,8.57,1.33,3.07,2.97,6.14,4.05,9.3.92,2.71,1.3,5.61,1.85,8.41.9,4.63,1.74,11-1.79,14.79-1.86,1.99-4.55,2.89-6.8,4.33s-3.88,3.49-5.78,5.35c-2.26,2.22-5.26,3.31-8.04,4.71s-5.34,3.37-8.01,5.13c-5.3,3.49-12.02,4.22-17.97,6.11-3.01.95-5.89,2.12-9.01,2.69s-6.36.64-9.57.61c-3.03-.03-6.07.02-9.02.81s-5.86,2.17-8.93,2.89c-6.03,1.4-12.06,1.18-18.19,1.51-4.89.26-10.44,1.15-15.14-.66-2.46-.95-4.65-2.85-6.98-4.11-2.58-1.41-5.24-2.75-7.59-4.54-5.49-4.18-10.77-8.66-16.24-12.87-2.8-2.16-5.61-4.31-8.4-6.48-2.38-1.85-4.71-3.66-6.63-6-3.59-4.38-6.1-9.54-9.62-13.98-4.12-5.21-8.43-10.28-12.54-15.49-3.63-4.62-6.09-10.05-8.67-15.29-1.25-2.55-2.54-5.09-4-7.52s-3.14-4.68-4.53-7.15c-3.05-5.43-4.98-11.18-7.06-17.02-2.2-6.18-5.19-12.07-7.12-18.34-.98-3.18-1.75-6.42-2.65-9.62s-2.03-6.43-3-9.66c-1.93-6.48-3.33-13.04-5.87-19.33-1.21-2.99-2.33-6.01-3.49-9.02-.54-1.41-1.16-2.78-1.64-4.21-.53-1.56-.76-3.19-1.33-4.73-1.03-2.79-2.21-5.47-3.1-8.33-1.01-3.24-1.97-6.5-2.97-9.74-2.01-6.49-4.6-12.76-6.69-19.22-2.07-6.39-4.22-12.74-6.24-19.15-1.53-4.87-5.13-9.64-4.65-14.94.17-1.92-2.83-1.91-3,0h0Z"/>
        <path class="cls-1" d="m364.17,210.79c-2.83,2.53-3.17,6.51-3.51,10.05-.19,1.99-.59,3.94-.82,5.93-.29,2.51-.27,5.04-.18,7.56.17,5.18.13,10.39.56,15.56s1.22,10.28,2.25,15.34c.93,4.6,1.56,9.51,3.25,13.9s4.74,8.21,8.32,11.32c6.5,5.65,14.84,6.34,23.12,6.1,4.19-.12,8.39-.26,12.58-.37,4.73-.13,9.74-.44,14.34-1.6,7.6-1.92,13.17-9.31,15.95-16.24,1.62-4.06,2.55-8.36,3.53-12.61,1.1-4.78,1.75-9.28,1.16-14.2s-1.93-9.76-3.28-14.55-2.58-9.8-4.24-14.59c-3.42-9.9-8.64-19.03-13.3-28.38-2.42-4.85-4.73-9.76-7.31-14.52s-5.26-9.12-7.89-13.69c-1.3-2.26-2.57-4.54-3.75-6.87-.98-1.94-1.96-3.89-3.26-5.64-2.72-3.64-6.64-5.67-10.72-7.46-2.08-.91-4.18-1.79-6.17-2.9-1.84-1.03-3.48-2.33-5.19-3.54-3.2-2.28-6.69-3.4-10.64-2.93-4.94.58-8.89,3.33-13.02,5.83-3.87,2.34-8.33,2.73-12.67,3.6-5.17,1.03-10.25,2.54-15.4,3.66s-10.29,2.48-15.37,3.97-9.98,3.21-15.06,4.48-10.31,2.14-15.56,2.46c-5.28.33-10.62.28-15.91.25-1.23,0-2.48.04-3.7-.13s-2.43-.63-3.66-.91c-2.47-.56-4.96-.4-7.47-.34-11.02.24-22.08.02-33.1.01-5.4,0-10.8,0-16.21,0-5.02,0-10.35-.64-15.29.48-2.4.54-4.71,1.43-7.13,1.88-2.56.47-5.19.15-7.77.5-2.42.33-4.56,1.44-6.9,2.06-2.46.64-5,.16-7.51.37s-4.72,1.24-7.07,2.14-4.63,1.29-6.84,2.25-3.88,2.46-5.7,3.87-4.03,2.87-6.21,3.79c-3.56,1.5-7.77-.88-10.75,2.23-1.34,1.39.78,3.52,2.12,2.12s3.25-.84,4.94-.73c2.15.13,4.12-.44,6.03-1.41s3.82-2.19,5.55-3.52c1.93-1.49,3.74-3.09,6.06-3.95,2.1-.78,4.29-1.22,6.38-2.07,2.42-.98,4.57-1.78,7.21-1.78,2.22,0,4.42.15,6.59-.42,2.4-.63,4.59-1.83,7.09-2.07,2.32-.22,4.66-.03,6.97-.39,2.45-.38,4.78-1.26,7.17-1.85,4.82-1.18,10.11-.5,15.04-.5,10.46,0,20.91,0,31.37.01,5.26,0,10.53,0,15.79,0,2.4,0,4.85-.25,7.24-.04s4.57,1.22,6.97,1.36c5.09.29,10.29.05,15.38-.07s9.72-.65,14.5-1.57c9.67-1.85,18.93-5.45,28.46-7.9,4.92-1.27,9.92-2.19,14.84-3.48,4.61-1.21,9.25-2,13.89-3.03,1.86-.41,3.66-.98,5.39-1.79,2.11-.99,3.95-2.45,5.98-3.59,3.84-2.18,8.45-3.86,12.83-2.33,3.51,1.23,6.23,4.25,9.51,5.98,3.85,2.03,8.1,3.31,11.73,5.76s5.44,6.52,7.48,10.39c2.35,4.47,4.99,8.79,7.53,13.16,5.22,8.98,9.59,18.4,14.28,27.66,2.29,4.51,4.75,8.95,6.74,13.6s3.5,9.19,4.81,13.93c2.46,8.91,6.03,18.35,5.4,27.73-.29,4.33-1.64,8.77-2.73,12.96s-2.43,8.12-4.78,11.67c-1.98,3-4.91,6.13-8.12,7.84-3.68,1.95-8.44,2.1-12.5,2.4-4.27.32-8.55.24-12.82.43-3.99.17-8,.34-11.98-.04s-7.75-1.35-10.97-3.57c-3.75-2.58-7.15-6.41-9.03-10.57s-2.38-8.93-3.32-13.36c-1.06-4.98-1.9-10.01-2.36-15.09s-.36-9.8-.57-14.7c-.1-2.34-.19-4.69-.07-7.04.11-2.2.58-4.33.83-6.51.37-3.21.19-7.31,2.81-9.65,1.44-1.29-.69-3.41-2.12-2.12h0Z"/>
        <path class="cls-1" d="m159.2,278.13c-2.88,1.97-3.72,5.96-3.77,9.23s.86,7.42,4.5,8.56c1.98.62,4.1.36,6.13.33,1.61-.03,3.21.25,4.82.27,1.78.02,3.38-.24,4.61-1.62s1.62-3.07,1.7-4.79c.17-3.49-.99-7.06-2.34-10.23-1.51-3.55-3.41-7.47-6.82-9.54-4.61-2.81-9.81-1.37-14.37.67-4.91,2.2-9.87,4.44-14.21,7.66-2.09,1.55-3.97,3.2-5.24,5.51-.89,1.63-1.9,3.64-2.26,5.47-.35,1.74.62,2.98,2.05,3.86,2.19,1.34,4.78,2.04,7.28,2.49s5.13.68,7.68,1.13c2.83.5,5.63,1.21,8.44,1.8,5.95,1.24,11.99,2.28,18.08,2.37,3.38.05,7.57.46,10.53-1.54,3.32-2.25,3.74-6.58,3.06-10.21-.4-2.14-1.08-4.24-1.89-6.26-.74-1.83-1.55-3.64-2.84-5.16-2.78-3.27-7.34-4.64-11.52-4.24-2.26.21-4.34.91-6.41,1.79-1.96.83-4.05,1.69-5.44,3.36s-2.21,3.74-3.02,5.76-1.77,3.88-1.91,6.05c-.28,4.16,3.13,6.9,6.61,8.4s7.34,1.61,9.71-1.53c1.22-1.61,1.65-3.59,1.84-5.57s-2.82-1.91-3,0c-.26,2.7-1.47,5.34-4.56,5.12-2.66-.19-6.63-2.09-7.46-4.84-.43-1.42.05-2.97.59-4.3.68-1.65,1.32-3.35,2.1-4.95s1.74-2.82,3.35-3.67,3.4-1.61,5.19-2.14c3.35-.98,7.19-.73,10.11,1.29,2.69,1.86,3.87,5.34,4.81,8.33.89,2.84,1.92,6.56.05,9.25-1.53,2.19-4.77,2.04-7.13,2.04-4.66,0-9.25-.34-13.86-1.11-4.91-.82-9.72-2.11-14.61-2.97-4.23-.74-8.74-.8-12.73-2.54-.68-.29-1.52-.63-2.06-1.16-.07-.07-.17-.24-.11-.07-.02-.07.05-.31.11-.52.46-1.62,1.26-3.32,2.12-4.75,1.12-1.87,2.84-3.22,4.6-4.46,1.91-1.35,3.93-2.53,6.01-3.6,1.95-1.01,3.95-1.93,5.95-2.84s3.96-1.86,6.11-2.33c4.06-.89,7.67.74,9.84,4.19,1.51,2.4,2.73,5.07,3.58,7.77.76,2.41,1.7,5.7.61,8.15-.55,1.24-1.33,1.42-2.6,1.43-1.48,0-2.94-.2-4.42-.26-2.37-.09-6.35,1-7.62-1.69-1.14-2.4-.89-5.62-.11-8.09.31-.99.79-2.15,1.68-2.76,1.58-1.08.08-3.68-1.51-2.59h0Z"/>
        <path class="cls-1" d="m304.24,265.62c-2.66,2.37-2.84,6.37-1.49,9.47,1.56,3.59,4.82,4.83,8.54,4.88,4.07.05,8.32-1.12,11.29-4.01s5.59-6.96,6.01-11.11-1.98-7.82-5.09-10.39-6.78-4.73-10.59-6.13-7.93-1.84-11.67-.24-6.78,5.28-8.16,9.17c-1.18,3.34-.95,7.04.67,10.19,1.82,3.54,5.08,5.66,8.65,7.14s6.68,3.51,10.41,4.05c3.42.49,6.19-1.27,6.8-4.74.54-3.06-.11-6.23-.78-9.22-.8-3.53-2.05-7.15-4.22-10.08-2.04-2.75-4.86-4.72-8.35-4.95s-7.32,1.4-10.05,3.73c-4.74,4.05-9.7,12.6-4.67,18.25,2.73,3.06,7.93,4.78,11.93,4.17,3.72-.56,5.68-3.1,5.94-6.74.12-1.64-.03-3.3-.05-4.94-.02-1.93-3.02-1.93-3,0,.03,2.17.71,5.45-.64,7.36-1.86,2.62-6.53,1.3-8.85.21-2.64-1.24-4.56-3.03-4.39-6.12.15-2.72,1.67-5.4,3.35-7.48,3.28-4.08,9.61-7.69,14.41-3.83,4.18,3.35,5.67,9.65,6.39,14.7.25,1.76.75,5.09-.93,6.36-.91.69-2.25.44-3.27.2-1.58-.38-3.09-1.02-4.57-1.7-5.14-2.36-11.62-4.45-12.45-10.95s4.63-12.8,10.96-12.81c3.27,0,6.44,1.25,9.28,2.77s5.89,3.41,8.01,5.96,2.49,5.86,1.07,8.96-3.58,6.24-6.59,7.78c-2.82,1.44-6.61,1.9-9.68,1.09-2.47-.65-3.68-3.48-3.52-5.86.08-1.2.55-2.22,1.44-3.02,1.44-1.29-.69-3.41-2.12-2.12h0Z"/>
        <path class="cls-1" d="m295.28,511.07c-.9-2.5-3.21-4.19-5.29-5.7-1.16-.84-2.55-1.14-3.72-1.92s-1.83-2.11-2.74-3.15c-2.01-2.28-5.09-3.17-7.73-4.46-2.93-1.42-5.45-3.55-8.24-5.2-3.68-2.17-9.28-4.19-12.17.26-2.31,3.55-1.14,8.1.41,11.66,1.21,2.78,2.07,5.54,4.11,7.85,1.06,1.21,2.21,2.33,3.32,3.49s2.17,2.55,3.32,3.77c2.13,2.26,4.87,3.8,6.95,6.14,1.93,2.17,3.65,4.47,5.87,6.37,2.95,2.53,6.35,5.48,10.23,6.4,1.74.42,3.63.29,5.01-.96,1.71-1.53,2.04-4.03,2.3-6.18.72-5.9.12-11.84-.95-17.64-1.02-5.5-1.95-11.87-5.9-16.13-.84-.91-2.11-.32-2.51.66-1.55,3.81,1.41,7.63,3.61,10.48,2.76,3.58,4.43,7.66,6.56,11.61,1.29,2.4,3.12,5.96,6.11,6.58,2.02.42,3.75-.81,4.95-2.31,3.24-4.09,4.6-9.81,5.84-14.78,1.7-6.85,3.07-13.81,4.37-20.74.41-2.16,1.09-4.2,1.7-6.31.53-1.84,1.07-3.93.6-5.85-.88-3.59-4.87-3.74-7.86-3.28-3.35.52-6.79,1.55-9.46,3.7-1.35,1.08-2.43,2.43-3.47,3.8-1.33,1.75-2.62,3.54-3.7,5.46-2.18,3.88-3.45,8.14-4.02,12.54-.64,4.94-.22,9.91-.99,14.84-.83,5.34-.82,10.65-.78,16.04.02,3.63-.12,7.61,1.28,11.04,1.08,2.63,3.87,4.41,6.51,2.6,2.35-1.61,3.42-4.83,4.17-7.44.91-3.12,1.36-6.3,1.4-9.55.04-2.59-.12-5.19-.1-7.78.01-2.24.22-4.48.27-6.72.04-2.1-.02-4.24-.57-6.28-.42-1.55-2.37-1.28-2.89,0-1.3,3.18-1.93,6.53-2.39,9.92-.4,2.92-1.07,5.92-1.01,8.87.02.91.27,2.42-.32,3.22-.19.26-.49.17-.93,0-1.54-.62-2.82-2.15-3.89-3.36-3.16-3.55-6.18-7.23-9.27-10.84-1.84-2.15-3.79-4.21-5.71-6.28-1.51-1.63-3.39-3.38-5.79-3.12-4.22.46-5.47,5.48-5.93,8.97-.51,3.85-.78,8.53,2.21,11.49,3.24,3.2,8.55,3.45,12.77,4.28,5.65,1.12,12.12,2.65,17.74.61,2.5-.91,4.65-2.57,5.82-5,1.06-2.23,1.35-4.73,1.26-7.18-.11-3.28-.79-6.53-1.34-9.75-.66-3.87-1.23-7.73-1.3-11.66-.03-1.93-3-1.94-3,0,0,4.82.28,9.73-.06,14.53s-1.57,9.16-1.15,13.83l2.95-.4c-1.16-7.57-4.61-14.47-7.77-21.36-1.47-3.2-4.08-5.55-6.64-7.86-2.15-1.94-4.09-4.23-6.84-5.33-1.36-.54-2.79-.73-4.2-1.11s-2.84-.84-4.28-.41c-3.07.93-4.51,4.63-5.26,7.43-.85,3.18-1.31,6.33-2.63,9.37-1.41,3.25-2.98,6.6-2.47,10.24.86,6.09,6.36,8.39,11.7,9.58,7.38,1.64,14.93,4.04,22.56,2.9s13.13-5.43,18.17-10.53c1.95-1.98,5.28-3.8,6.05-6.62.47-1.73-1.14-2.79-2.5-3.53-1.43-.77-2.99-1.14-4.59-1.29-3.21-.31-6.43.29-9.65.01-4.11-.36-8.05-1.39-12.06-2.32-2.89-.67-5.99-.2-8.44-2.17s-3.5-5.2-5.17-7.81c-.79-1.24-1.71-2.31-2.88-3.19-1.3-.99-2.65.86-2.05,2.05,1.96,3.89,6.37,6.21,10.05,8.17,1.76.94,3.49,1.86,5.15,2.96,1.88,1.24,3.73,2.54,5.73,3.59,1.82.95,3.86,1.79,5.94,1.76.96-.01,1.79-.16,2.3-1.05.34-.59.48-1.27.52-1.94.18-3.13-1.65-6.43-3.15-9.05-.98-1.7-2.08-3.34-3.29-4.89-.84-1.08-1.73-2.19-2.89-2.96-.53-.35-1.39-.23-1.82.23-1.65,1.81-1.82,4.3-1.8,6.64.02,2.67-.22,5.23-.4,7.9-.25,3.59-.29,7.2-.63,10.78-.29,3.05-.98,6.01-1.58,9.01-.84,4.23-2.38,11.46,3.73,12.19,2.24.27,4.66-.3,6.78-.97,2.35-.75,4.61-1.84,6.61-3.29,7.5-5.43,11.9-14.78,13.16-23.79.32-2.26.45-4.54.11-6.81-.25-1.68-.95-4.62-2.91-4.97-3.45-.61-6.24,2.76-8,5.23-2.51,3.53-4.3,7.52-6.19,11.4-.96,1.97-2.11,3.72-3.43,5.48-1.03,1.38-2.18,2.76-2.96,4.3-.5.98-.72,2.64-1.78,3.18l2.2.9c-.75-3.76.55-7.63-1.17-11.24-1.5-3.15-4.7-5-7.94-5.92-4.68-1.32-9.81-1.18-14.55-.18-3.55.75-8.73,2.56-8.78,6.97-.03,2.47,1.68,4.65,3.32,6.32,2.63,2.69,5.77,4.97,9.14,6.65,1.85.92,3.8,1.7,5.81,2.19,2.14.52,4.26.55,6.44.66,4.99.24,9.93,1.12,14.94,1.19,1.93.03,1.93-2.97,0-3-3.91-.06-7.79-.6-11.68-.95-3.52-.32-7.02-.13-10.43-1.22-3.23-1.03-6.27-2.75-8.94-4.82-1.95-1.51-4.34-3.41-5.33-5.75-.56-1.33-.29-2.23.76-3.13,1.18-1.01,2.84-1.55,4.35-1.94,3.7-.97,7.78-1.26,11.57-.66,3.07.48,6.6,1.52,8.31,4.34,1.03,1.69,1.04,3.65.99,5.57s-.11,3.8.27,5.7c.2,1,1.4,1.3,2.2.9,1.33-.67,1.91-1.93,2.43-3.25.68-1.69,1.76-3.13,2.84-4.58,1.49-2,2.88-3.96,3.97-6.2,2.03-4.17,3.91-8.61,6.83-12.26.68-.85,1.45-1.72,2.36-2.32.66-.43,1.39-.72,1.98-.61l-.9-.69c1.44,1.87,1.52,4.39,1.4,6.65-.14,2.74-.72,5.46-1.5,8.09-1.51,5.08-4.21,10.09-7.99,13.84-2.01,1.99-4.39,3.62-7.03,4.65-1.42.55-2.9.96-4.4,1.22-1.03.18-2.26.36-3.27,0-1.11-.39-1.21-1.48-1.21-2.53,0-1.79.3-3.57.64-5.32.7-3.66,1.52-7.24,1.83-10.96.39-4.66.45-9.32.93-13.97.15-1.43.03-2.88.03-4.31,0-1.34-.05-3.12.92-4.18l-1.82.23c.27.18-.1-.15.03.02.07.09.19.15.27.23.21.19.41.39.6.6.48.52.93,1.06,1.36,1.63,1.12,1.48,2.13,3.05,3.04,4.67.85,1.51,1.64,3.08,2.15,4.75.2.64.37,1.3.39,1.97,0,.24-.03.6-.04.61-.06.25,0,.17-.24.5l.9-.69c-2.29.32-4.74-1.18-6.6-2.31-2.16-1.3-4.17-2.85-6.36-4.09s-4.27-2.21-6.32-3.48-4.31-2.83-5.45-5.1l-2.05,2.05c2.4,1.82,3.36,5.24,4.96,7.68,1.78,2.71,4.36,4.72,7.62,5.2,1.41.21,2.85.23,4.24.51,1.97.41,3.9.99,5.86,1.4,3.75.78,7.56,1.33,11.4,1.15,3.53-.16,7.53-.67,10.28,2.03l-.39-1.46c-.31,1.76-2.42,2.99-3.68,4.08-1.81,1.55-3.35,3.4-5.17,4.94-3.44,2.91-7.36,5.21-11.8,6.15-5.44,1.16-10.98.06-16.3-1.2-3.6-.85-7.51-1.35-10.94-2.78s-5.5-4.62-4.73-8.48c.47-2.34,1.56-4.49,2.48-6.67.84-1.99,1.36-4,1.8-6.12.41-1.98.8-4.06,1.74-5.87.42-.81,1.01-1.81,1.86-2.23.76-.38,1.63-.03,2.4.18,1.76.48,3.68.65,5.29,1.55s2.84,2.36,4.19,3.59c1.87,1.71,3.89,3.34,5.42,5.38,1.62,2.17,2.54,4.88,3.66,7.33,2.34,5.11,4.44,10.26,5.29,15.84.25,1.66,3.1,1.28,2.95-.4-.42-4.66.83-9.2,1.15-13.83.34-4.8.06-9.72.06-14.53h-3c.1,6.4,1.68,12.56,2.43,18.88.44,3.72.57,8.56-2.94,10.93-4.56,3.08-11.3,1.57-16.29.6-2.34-.46-4.7-.87-7.03-1.35-1.88-.39-3.95-.83-5.51-2.03-2.83-2.17-2.3-6.7-1.83-9.82.37-2.42,1.75-7.95,5.12-5.16,1.8,1.49,3.35,3.46,4.93,5.18,2.1,2.27,4.04,4.69,6.05,7.04,1.3,1.51,2.67,2.95,3.92,4.5,1.12,1.38,2.27,2.74,3.6,3.93s2.96,2.41,4.82,2.29c2.45-.16,3.33-2.53,3.42-4.65.05-1.27-.11-2.54.07-3.8.24-1.66.47-3.32.69-4.98.48-3.72,1.09-7.41,2.52-10.9h-2.89c1.02,3.76.28,7.85.21,11.68-.08,4.34.47,8.75-.27,13.06-.38,2.21-.94,4.45-1.79,6.53-.41.99-.9,2.06-1.66,2.84-.54.56-.97.8-1.58.47-.97-.53-1.26-2.24-1.46-3.21-.28-1.32-.4-2.67-.45-4.02-.18-4.71-.22-9.53.01-14.24.12-2.37.59-4.7.91-7.05s.34-4.54.36-6.85c.04-4.03.4-8.07,1.56-11.94s3.19-7.25,5.58-10.5c1.8-2.45,3.74-4.57,6.66-5.64,1.42-.52,2.92-.89,4.42-1.17,1.16-.22,2.53-.44,3.68-.09,1.28.39,1.3,1.56,1.16,2.74-.23,1.9-.95,3.73-1.5,5.55-.63,2.05-.94,4.18-1.36,6.28-.48,2.46-.98,4.92-1.5,7.38s-1.02,4.83-1.56,7.24c-1,4.48-2.1,9.06-3.95,13.27-.73,1.66-1.57,3.51-2.98,4.61-.28.22-.79.41-1.01.37-.14-.02-.42-.12-.6-.23-.31-.19-.57-.42-.9-.77-2.75-2.94-4.15-7.14-5.99-10.65-.86-1.63-1.81-3.18-2.93-4.64s-2.25-2.86-3.12-4.46c-.73-1.35-1.18-2.74-.58-4.22l-2.51.66c3.03,3.27,3.89,8.31,4.71,12.53.87,4.52,1.56,8.97,1.57,13.59,0,2.35-.07,4.74-.55,7.04-.26,1.24-.65,2.75-2.13,2.86s-3.11-.8-4.36-1.54c-1.57-.92-3.03-2.01-4.43-3.17-1.59-1.31-3.09-2.67-4.43-4.24-1.82-2.12-3.5-4.31-5.71-6.06-1.06-.85-2.19-1.62-3.19-2.54-1.06-.97-1.89-2.15-2.85-3.22-1.89-2.1-4.28-3.97-5.72-6.42-1.22-2.08-2.11-4.53-2.96-6.79-.6-1.59-.92-3.36-.71-5.06.15-1.21.59-2.57,1.69-3.22,1.53-.9,3.59-.16,5.05.52,2.98,1.37,5.55,3.44,8.31,5.18,2.56,1.62,5.62,2.36,8.09,4.13,1.15.82,1.83,2.04,2.73,3.09.99,1.16,2.16,1.78,3.54,2.37,1.2.51,2.23,1.26,3.23,2.08.94.77,2.17,1.72,2.6,2.9.65,1.8,3.55,1.03,2.89-.8h0Z"/>
        <path class="cls-1" d="m260.68,547.4c1.93,0,1.93-3,0-3s-1.93,3,0,3h0Z"/>
        <path class="cls-1" d="m246.65,527c1.93,0,1.93-3,0-3s-1.93,3,0,3h0Z"/>
        <path class="cls-1" d="m232.63,543.57c1.93,0,1.93-3,0-3s-1.93,3,0,3h0Z"/>
        <path class="cls-1" d="m330.8,548.67c1.93,0,1.93-3,0-3s-1.93,3,0,3h0Z"/>
        <path class="cls-1" d="m346.1,518.07c1.93,0,1.93-3,0-3s-1.93,3,0,3h0Z"/>
        <path class="cls-1" d="m298.7,250.1c-.03,6.31-.56,14,5.47,18.01,2.24,1.49,5.06,1.59,7.23-.07,1.96-1.5,3.9-4.72,3.1-7.28-.66-2.11-3.06-2.61-4.96-2.06-2.33.67-3.9,2.47-5.06,4.51-1.41,2.48-2.58,5.16-3.47,7.87-.42,1.27-.75,2.55-.91,3.88-.18,1.47-.04,2.55,1.45,3.2,2.92,1.27,6.23-.51,7.96-2.9,1.39-1.92,1.35-4.32.88-6.55-.42-1.98-1.56-4.56-3.91-4.69-.52-.03-1.09.05-1.57.28-.84.41-.93,1.2-1.06,2.04-.2,1.31-.3,2.64-.17,3.97.24,2.39,1.13,4.76,3.22,6.11,2.28,1.48,5.58,1.27,7.96.14,4.78-2.28,5.43-8.65,4.88-13.29-.34-2.9-1.29-5.44-3.39-7.54s-4.82-3.46-7.64-4.15c-2.44-.59-5.09-.63-7.59-.56s-5.31.47-7.38,2.11c-1.02.81-1.67,1.85-2.13,3.05-.26.67.19,1.32.69,1.69,1.56,1.17,3.41,1.63,5.34,1.38s1.91-3.25,0-3c-1.48.19-2.63-.07-3.83-.97l.69,1.69c1.25-3.26,6.07-3.03,8.89-2.95,3.86.11,7.68.84,10.6,3.59s3.22,6.64,2.81,10.3-2.23,6.56-6.17,6.52c-4.34-.04-4.34-5.25-3.71-8.38l-1.05,1.05c1.43-.51,1.81,3.26,1.79,4.37-.03,2.39-3.01,5.17-5.38,3.68l.74,1.3c-.19-2.84,1.25-5.95,2.39-8.47.99-2.19,2.15-5.32,4.58-6.28.39-.16.82-.26,1.24-.22.18.02.36.12.35.1.38.93-.7,2.66-1.35,3.42-2.31,2.72-5.35.43-6.78-1.96-2.37-3.97-1.8-8.53-1.78-12.95,0-1.93-2.99-1.93-3,0h0Z"/>
        <path class="cls-1" d="m114.23,310.42c.55-3.95-.81-7.63-1.16-11.53-.19-2.1-.07-4.19-.32-6.29s-.61-4.06-.99-6.08c-.7-3.67-1.42-7.21-3.15-10.56-1.84-3.57-3.8-6.97-4.58-10.97-.37-1.89-3.26-1.09-2.89.8.73,3.76,2.44,7.27,4.29,10.59s2.59,6.46,3.26,10.01c.39,2.06.81,4.12,1.06,6.2.23,1.96.16,3.91.29,5.88.24,3.69,1.82,7.43,1.3,11.14-.11.81.2,1.6,1.05,1.85.7.2,1.73-.25,1.85-1.05h0Z"/>
        <path class="cls-1" d="m166.55,273.27c-1.43,1.45-2.98,2.78-4.36,4.28-1.46,1.59-3.09,3.5-3.5,5.69-.46,2.51,1.11,4.36,3.37,5.21,2.52.95,5.52.25,7.71-1.18s4.04-3.84,3.84-6.59-2.07-4.68-4.32-5.92c-2.37-1.31-5.1-1.97-7.79-2.17-2.43-.18-5.21.08-6.86,2.1-2.27,2.78.26,5.83,3.26,6.39,1.51.28,3.07.31,4.6.21,1.32-.08,2.76-.2,4-.71s1.49-1.96.36-2.74c-3.57-2.46-9.5-1.87-12.9.63-1.57,1.15-2.87,2.81-3,4.83-.11,1.85.93,3.52,2.51,4.44,1.88,1.09,4.19,1.07,6.3.98s4.36-.44,6.21-1.58c3.88-2.4,4.94-7.7,4.53-11.95-.35-3.67-2.26-7.74-6.16-8.71-2.89-.72-5.74.68-7.83,2.6-3.33,3.07-7.42,11.23-1.53,14.02,4.37,2.07,9.73.97,13.75-1.36s7.51-6.38,7.98-11.24c.18-1.92-2.82-1.91-3,0-.3,3.13-2.52,5.87-4.97,7.67-2.67,1.95-5.96,3.19-9.29,3-.77-.04-1.52-.19-2.26-.41-.28-.09-.57-.17-.83-.3-.13-.06-.68-.44-.49-.29-.09-.07-.4-.4-.32-.31.07.08-.2-.31-.26-.42-.04-.07-.14-.33-.03-.04-.03-.08-.06-.16-.08-.24-.04-.13-.14-.78-.12-.5-.1-1.05.01-1.57.36-2.64.32-.96.82-1.9,1.47-2.85.58-.85,1.37-1.71,2.24-2.42.64-.52,1.65-1.08,2.4-1.3.89-.25,1.5-.29,2.43.04.77.27,1.75,1.11,2.34,2.02,1.84,2.81,1.55,7.14.39,10.16-1.31,3.43-4.73,4.05-8.03,4.06-1.49,0-3.42.07-4.45-1.22-.24-.3-.34-.81-.29-1.18.08-.64.45-1.21.88-1.68,2.39-2.56,7.6-3.23,10.5-1.23l.36-2.74c-1.71.7-3.8.71-5.61.63-.4-.02-.8-.04-1.2-.1-.19-.03-.39-.07-.58-.11-.1-.02-.59-.18-.42-.11-.37-.15-.88-.41-1.1-.77-.13-.21-.11-.24-.02-.42.71-1.41,2.94-1.32,4.27-1.26,1.96.09,3.98.52,5.77,1.31,1.44.64,3.11,1.62,3.64,3.2.57,1.69-.52,3.33-1.82,4.34-1.43,1.1-3.48,1.82-5.27,1.33-.62-.17-1.34-.59-1.6-.92s-.26-.66-.12-1.17c.43-1.64,1.88-3.19,3.09-4.46s2.63-2.51,3.91-3.8c1.36-1.37-.76-3.5-2.12-2.12h0Z"/>
        <path class="cls-1" d="m77.3,352.31c-1.93,2.09-2.38,5.21-2.71,7.92-.4,3.32-.21,6.65-.43,9.98-.29,4.39-1.17,8.71-1.48,13.1s-.11,9.05.26,13.55c.37,4.47.89,8.93,1.28,13.4.16,1.82.56,3.53.98,5.31.49,2.1.31,4.23.57,6.36.23,1.88.64,3.73.9,5.6.33,2.37.22,4.74.19,7.13-.06,4.59.73,9.15,1.04,13.72s1.18,8.73,2.12,13.11c.94,4.37.71,8.82,1.27,13.23.28,2.19.73,4.34.9,6.55.18,2.34.25,4.69.61,7.02.67,4.47.43,8.75.44,13.25s.97,8.41,1.4,12.65-.09,8.64-.15,12.87c-.07,4.62-.26,9.24.01,13.85.26,4.54,1.53,8.96,1.39,13.52-.06,2.14-.26,4.27-.16,6.41.11,2.36.72,4.65.91,7.01.36,4.39.16,8.79.63,13.18.93,8.73,3.2,17.22,5.86,25.56,2.8,8.77,5.66,17.49,8.1,26.37,2.25,8.2,4.84,16.16,8.2,23.97,1.4,3.25,2.83,7.16,6.03,9.05,2.89,1.71,6.43,1.52,9.65,1.32,5.9-.36,11.15-2.57,14.1-7.94,1.36-2.49,2.17-5.25,2.76-8.01.34-1.61.57-3.23.93-4.84.52-2.29,1.25-4.52,1.88-6.77.56-2.02,1.05-4.06,1.23-6.15.21-2.39-.05-4.78-.01-7.17.04-2.12.62-4,1.1-6.04.53-2.26.32-4.41.24-6.71s.6-4.1,1.09-6.2c.52-2.26.16-4.33.16-6.61,0-4.4,1.85-8.77,2.46-13.11s.35-9.11.26-13.64-.05-9.43-.05-14.15v-14.21c0-2.23,0-4.46,0-6.68s-.16-4.72.03-7.04c.15-1.93.87-3.76,1.5-5.57.74-2.13,1.26-4.32,1.86-6.5,1.15-4.16,2.39-8.42,4.17-12.36,1.32-2.93,3.11-5.97,2.58-9.3-.3-1.9-3.2-1.09-2.89.8.24,1.52-.56,3.24-1.16,4.59-.72,1.63-1.5,3.22-2.14,4.89-1.54,4.02-2.8,8.13-3.9,12.29-.97,3.69-2.71,7.34-3.01,11.16-.35,4.52-.04,9.19-.04,13.72,0,9.05-.13,18.1.02,27.15.07,4.42.39,8.91-.04,13.32s-1.97,8.58-2.52,12.95c-.24,1.92.19,3.79.1,5.71-.1,2.21-1.11,4.27-1.38,6.46s.23,4.35.07,6.53c-.15,1.99-.98,3.86-1.29,5.83-.32,2.09-.19,4.21-.14,6.31.06,2.48-.14,4.83-.73,7.25-.97,3.95-2.2,7.76-2.95,11.77-.92,4.88-2.32,10.53-6.87,13.3-2.65,1.62-5.71,1.92-8.75,2.06-3.31.15-6.73.05-8.76-2.96-2.12-3.15-3.52-7.03-4.92-10.54-1.6-4-2.92-8.11-4.14-12.25-2.43-8.26-4.63-16.55-7.29-24.74-2.72-8.37-5.53-16.71-7.22-25.36-.82-4.17-1.37-8.38-1.52-12.62s-.19-8.39-.9-12.59c-.76-4.49.29-9.03-.31-13.53-.25-1.91-.73-3.77-.94-5.69-.26-2.32-.36-4.67-.4-7-.06-4.32.11-8.64.14-12.97s.4-8.34-.23-12.58-1.13-8.09-1.01-12.26c.06-2.09.17-4.19.09-6.28s-.54-4.21-.77-6.33-.29-4.41-.5-6.61-.73-4.49-.96-6.76c-.42-4.24-.32-8.44-1.22-12.62s-1.77-8.48-2.05-12.91-1.06-8.74-1-13.13c.03-2.16.13-4.31-.1-6.46s-.69-4.08-.97-6.14c-.24-1.79-.11-3.6-.35-5.39-.26-1.97-.99-3.85-1.18-5.84-.84-8.63-2.08-17.38-1.67-26.06.2-4.31,1.03-8.56,1.43-12.86.3-3.29.13-6.58.38-9.87.18-2.34.32-5.79,2.01-7.62,1.31-1.42-.81-3.54-2.12-2.12h0Z"/>
        <path class="cls-1" d="m365.06,450.67c1.96,9.21,7.9,16.69,12.14,24.9,2.35,4.55,3.83,9.49,5.84,14.2,1.08,2.53,2.25,4.99,3.01,7.65s1.3,5.5,2.11,8.21c1.44,4.84,3.53,9.45,4.94,14.31s2.62,10.19,3.44,15.38c.87,5.53,1.29,11.12,2.43,16.61.56,2.69,1.36,5.4,1.64,8.13.29,2.88.02,5.72.57,8.59,2.07,10.62,5.71,20.81,9.83,30.78,2.11,5.1,4.22,10.21,6.45,15.26s4.85,10.14,7.19,15.25c2.03,4.44,3.62,9.33,6.63,13.23s6.91,6.86,10.15,10.49c3.48,3.91,7.28,8.05,9.89,12.6,1.05,1.83,2.07,3.63,3.39,5.29,1.5,1.88,3.26,3.51,4.7,5.44,2.46,3.3,4.75,7.02,8.69,8.7s8.61.93,12.45-.84c2.09-.96,3.95-2.35,5.86-3.6,2.2-1.44,4.39-2.89,6.43-4.54,1.76-1.42,3.48-2.92,5.21-4.38s2.91-3.52,3.5-5.77c1.23-4.69,1.63-9.63,1.6-14.46-.01-2.65-.03-5.3.14-7.94.18-2.85.74-5.6,1.16-8.42.74-4.93-.03-9.98-.03-14.93,0-5.7.01-11.41,0-17.11-.02-11.08-2.07-21.96-4.1-32.82-2.08-11.12-3.35-22.34-5.9-33.38-1.21-5.22-2.16-10.5-3.41-15.7s-2.87-10.64-4.42-15.92c-1.53-5.24-3.11-10.52-4.13-15.89-.47-2.5-.68-5.07-1.26-7.55-.61-2.61-1.73-5.1-2.55-7.65-1.67-5.23-3.59-10.39-5.14-15.66s-2.96-10.98-4.52-16.45-3.2-10.95-4.98-16.36-3.96-10.53-4.21-16.09c-.12-2.58-.09-5.13-.39-7.71s-.77-5.05-1.01-7.6c-.51-5.35-.07-10.73.07-16.09.13-5.28-.21-10.54-1.37-15.7s-2.99-10.41-3.85-15.8-1.1-10.4-1.12-15.63c0-1.93-3-1.93-3,0,.01,5.29.33,10.56,1.12,15.8s2.39,10.1,3.65,15.17,1.68,10.29,1.57,15.53c-.11,5.15-.54,10.31-.19,15.47.17,2.55.62,5.07.96,7.61.36,2.78.46,5.52.52,8.32.12,5.17,1.83,10.09,3.47,14.94,3.51,10.36,6.46,20.89,9.28,31.46,1.42,5.31,3.2,10.48,4.95,15.69s3.64,10.02,4.45,15.31c1.6,10.4,5.11,20.36,7.86,30.49,1.4,5.15,2.38,10.37,3.53,15.58,1.21,5.48,2.58,10.92,3.53,16.46.91,5.37,1.57,10.78,2.48,16.16s2.01,10.72,2.93,16.1,1.71,10.98,2.02,16.52.14,10.92.14,16.36.24,10.62.32,15.94c.07,5-1.29,9.86-1.51,14.86-.24,5.36.21,10.68-.76,15.99-.4,2.18-.55,4.52-1.62,6.5s-3.19,3.12-4.84,4.63c-3.73,3.42-8.14,6.48-12.55,8.97-3.79,2.13-8.9,3.19-12.72.56-3.52-2.43-5.43-6.66-8.3-9.74-1.52-1.63-2.96-3.25-4.14-5.15-1.25-2.02-2.33-4.08-3.77-5.98-3.03-4-6.26-7.99-9.75-11.59s-7.32-6.38-9.68-10.62c-2.52-4.54-4.27-9.51-6.58-14.16-2.42-4.85-4.67-9.79-6.81-14.77-4.29-9.97-8.62-20-11.69-30.42-1.54-5.2-3.27-10.73-3.32-16.19s-1.59-10.44-2.47-15.73-1.28-10.47-2.21-15.67c-.89-4.99-2.09-9.92-3.58-14.76s-3.79-9.89-5.08-15.03c-.58-2.31-1.07-4.65-1.8-6.93-.88-2.75-2.19-5.33-3.3-7.99-1.85-4.44-3.26-9.04-5.47-13.32-2.08-4.01-4.54-7.8-6.76-11.73s-4.14-8-5.08-12.45c-.4-1.89-3.29-1.09-2.89.8h0Z"/>
        <path class="cls-1" d="m167.78,170.18c1.26-5.46,2.68-10.89,4.78-16.09,2.16-5.36,5.38-10.15,8.2-15.17,1.38-2.46,2.77-4.98,4.54-7.2,1.55-1.94,3.45-3.42,5.31-5.02,1.98-1.7,3.43-3.92,5.39-5.65,2.18-1.92,4.47-3.68,6.58-5.68s4.11-4.04,6.1-6.11,3.51-4.31,5.24-6.53,3.84-3.74,6.01-5.41,3.78-3.46,5.49-5.47c3.66-4.3,7.38-8.63,11.71-12.27,2.1-1.77,4.64-2.9,6.65-4.81,1.73-1.64,3.43-3.28,5.41-4.61,4.9-3.29,10.33-6.13,15.75-8.45,2.73-1.17,5.36-2.73,8.13-3.78,2.51-.95,5.19-1.28,7.67-2.34,5.19-2.21,9.98-5.31,15.32-7.16,2.81-.97,5.55-2.07,8.3-3.21,2.44-1.02,4.46-2.68,6.77-3.95s5.02-2.11,7.6-2.97,5.04-1.88,7.51-3.02c5.35-2.47,10.99-4.42,16.66-5.99,5.97-1.65,12.07-2.75,18.18-3.76,3.09-.51,6.18-1,9.26-1.54s6.1-1.38,9.18-1.63,6.08.06,9.12-.05,6.04-.78,9.05-1.17c6.1-.79,12.37-1.72,18.53-1.63,2.93.04,5.85.23,8.75-.26,2.12-.36,4.14-1.01,6.3-.95,3.76.1,7.53.85,11.28.25,1.5-.24,3.05-.79,4.07-1.98,1.25-1.46-.86-3.59-2.12-2.12-.97,1.13-2.67,1.25-4.06,1.31-2.01.08-4.02-.1-6.02-.26-1.63-.13-3.29-.32-4.92-.16-2.57.25-5.01,1.15-7.61,1.24-3.14.1-6.29-.2-9.43-.01s-6.11.59-9.15.92c-6.14.66-12.22,1.95-18.41,1.82-3.14-.06-6.16.02-9.24.65s-6,1.14-9.02,1.65c-6.08,1.02-12.19,1.93-18.21,3.25-5.93,1.3-11.76,3.06-17.43,5.22-2.74,1.04-5.39,2.25-8.05,3.47-2.49,1.15-5.15,1.89-7.74,2.79s-4.93,1.87-7.16,3.31c-1.05.67-2.07,1.4-3.16,2.02-1.34.76-2.8,1.28-4.22,1.87-2.73,1.13-5.56,1.98-8.28,3.13-2.54,1.07-4.98,2.35-7.44,3.6s-4.94,2.6-7.62,3.36-5.33,1.45-7.91,2.73c-5.46,2.7-11.04,4.99-16.35,8.01-2.35,1.34-4.74,2.65-6.89,4.29-1.99,1.52-3.63,3.44-5.61,4.95-2.2,1.68-4.58,2.96-6.66,4.82s-4.08,3.93-5.99,6.03-3.73,4.25-5.56,6.4-3.73,3.7-5.9,5.36-3.97,3.44-5.6,5.64c-1.73,2.32-3.49,4.47-5.51,6.54s-4.06,4.12-6.2,6.07-4.49,3.54-6.43,5.59-3.57,3.94-5.68,5.7c-1.85,1.54-3.49,3.26-4.91,5.21-1.68,2.32-3.06,4.83-4.46,7.32s-3.03,5.05-4.48,7.61c-2.74,4.84-4.71,10.07-6.25,15.4-.77,2.67-1.43,5.38-2.05,8.09-.43,1.88,2.46,2.68,2.89.8h0Z"/>
        <path class="cls-1" d="m449.55,15.9c1.09-2.8,3.12-5.22,4.75-7.71,1.21-1.85,2.81-3.83,4.82-4.85.66-.33,1.32-.55,1.84-.05.66.64,1.02,1.66,1.32,2.52.76,2.18,1.34,4.51,1.85,6.75.88,3.9,1.13,7.91,1.6,11.87.1.81.62,1.49,1.5,1.5.74,0,1.6-.7,1.5-1.5-.49-4.1-.76-8.24-1.63-12.28-.56-2.61-1.22-5.4-2.21-7.89s-2.57-4.74-5.51-4.17-5.15,3.14-6.81,5.34c-1.05,1.38-1.97,2.88-2.94,4.31-1.15,1.71-2.24,3.45-2.99,5.37-.7,1.8,2.2,2.58,2.89.8h0Z"/>
        <path class="cls-1" d="m469.99,31.87c3.16,3.18,5.91,6.6,9.33,9.51s6.36,6.15,9.5,9.22,5.92,6.51,8.62,10.03,5.77,6.61,8.12,10.23,4.88,6.79,7.39,10.2c2.29,3.1,4.09,6.38,6.71,9.24,2.79,3.07,5.05,6.37,7.48,9.72,2.55,3.51,4.86,7.04,6.68,10.99,1.69,3.67,2.82,7.33,4.86,10.84,2.22,3.81,2.89,7.97,3.86,12.21s2.97,8.13,4.6,12.23,2.3,8.48,3.39,12.7c2.31,8.98,6.04,17.32,9.12,26.03s5.08,17.84,7.49,26.81c4.85,18.01,10.69,35.79,14.43,54.07.93,4.53,1.91,9.07,3.42,13.45s2.78,8.41,3.61,12.84c1.7,9.1,3.16,18.23,4.88,27.33,1.75,9.25,3.4,18.52,5.2,27.77s3.69,18.93,4.45,28.54c.35,4.43.59,8.77,1.38,13.15.86,4.78,1.6,9.44,1.97,14.29.33,4.37,1.1,8.67,1.24,13.06s-.03,8.95-.2,13.42-.19,9.03-.33,13.54-.4,8.75.15,13.1c1.13,8.85,1.94,18.06,1.1,27-.41,4.35-1.14,8.56-1.19,12.94-.04,3.63-.37,7.27-1.58,10.71-1.35,3.87-3.87,6.95-6.91,9.63-3.2,2.82-6.78,5.69-10.56,7.7-1.81.96-3.2.9-5.12.93-1.45.02-2.47.6-3.43,1.65-1.3,1.42.81,3.55,2.12,2.12,1.15-1.25,2.85-.51,4.38-.79,1.9-.35,3.59-1.28,5.19-2.31,3.58-2.32,7.06-4.89,10.21-7.77,5.4-4.93,8.03-11.23,8.57-18.45.34-4.45.36-8.82.96-13.27s.58-8.69.49-13.09-.06-8.86-.65-13.28c-.64-4.77-.98-9.29-.82-14.1.3-8.95.73-17.97.68-26.93-.02-4.58-.6-9.01-1.09-13.54s-.64-8.77-1.47-13.14c-1.79-9.41-2.05-18.92-3.48-28.39s-3.47-18.96-5.22-28.43c-1.75-9.46-3.54-18.91-5.39-28.36s-2.42-18.22-5.59-26.93-4.3-17.99-6.66-26.96-5.19-18.61-7.83-27.91-5.17-18.64-7.5-28.04-5.88-17.97-9.28-26.85c-1.6-4.18-2.83-8.49-3.94-12.82s-1.87-8.89-3.61-13.07-3.51-7.91-4.46-12.26c-.89-4.07-1.66-8.07-3.77-11.73-1.15-1.99-2.22-3.83-2.98-6-.62-1.77-1.31-3.5-2.09-5.2-1.82-3.95-4.13-7.48-6.68-10.99-2.35-3.23-4.46-6.53-7.16-9.47-2.92-3.17-4.96-6.77-7.54-10.19s-4.96-6.72-7.33-10.21-5.54-6.76-8.19-10.21c-5.3-6.91-11.42-13.51-18.06-19.16-3.42-2.91-6.17-6.34-9.33-9.51-1.36-1.37-3.48.75-2.12,2.12h0Z"/>
      </g>
      <path class="cls-1" d="m577.41,529.48c-3-2.94-6.15-5.71-9.06-8.75-3.09-3.23-5.82-6.81-8.63-10.28s-5.43-6.63-8.26-9.87c-1.38-1.58-2.34-3.24-3-5.23s-1.33-3.9-2.28-5.77-1.99-3.56-2.86-5.4c-.93-1.97-1.41-4.07-1.89-6.19-.95-4.23-2.4-8.3-3.89-12.37s-2.98-7.96-4.22-12.03-2.18-8.45-3.53-12.62-2.34-8.01-3.57-12-3.02-7.48-4.53-11.27-2.52-7.7-4.1-11.44-3.63-7.63-5.19-11.57c-3.35-8.45-6.96-16.8-10.63-25.11-1.83-4.15-3.75-8.26-5.8-12.3-1.89-3.72-3.66-7.48-6.21-10.8-2.3-3-4.74-5.8-6.41-9.22s-4.69-5.4-6.69-8.42c-.9-1.37-1.84-2.7-3.2-3.66-1.43-1.01-3.2-1.49-4.92-1.68-3.64-.4-7.29.72-10.76,1.66-1.68.46-3.37.94-5.1,1.15-1.89.23-1.92,3.23,0,3,3.6-.44,7-1.7,10.54-2.44,3.19-.67,7.19-.96,9.57,1.7,1.09,1.21,1.83,2.71,2.86,3.98,1.11,1.37,2.46,2.5,3.6,3.84,1.24,1.46,1.87,3.29,2.87,4.9s2.14,3.05,3.3,4.5,2.36,2.91,3.4,4.47c1.11,1.67,1.98,3.49,2.9,5.27,2.07,4.03,4.14,8.07,5.98,12.21,3.66,8.21,7.26,16.45,10.62,24.78,1.61,3.98,3.28,7.89,5.11,11.78s2.99,7.58,4.35,11.46,3.24,7.3,4.58,11.07,2.27,7.7,3.46,11.54c1.28,4.15,2.54,8.25,3.62,12.46s2.48,8.15,3.95,12.15,2.95,7.85,4.16,11.87c.65,2.13,1.03,4.32,1.59,6.47.52,2,1.31,3.89,2.27,5.72s1.93,3.43,2.76,5.21c.89,1.91,1.34,3.99,2.18,5.93,1.57,3.63,4.79,6.37,7.24,9.4,5.49,6.78,10.77,13.65,17.13,19.65,1.53,1.44,3.07,2.88,4.57,4.35,1.38,1.35,3.5-.77,2.12-2.12h0Z"/>
    </g>
  </g>
</svg>