<?xml version="1.0" encoding="UTF-8"?>
<svg id="Layer_1" data-name="Layer 1" xmlns="http://www.w3.org/2000/svg" viewBox="0 0 156 99">
  <defs>
    <style>
      .cls-1 {
        fill: #fff;
      }
    </style>
  </defs>
  <path class="cls-1" d="m90.3,19.93c-12.46-3.21-25.53-3.58-38.19-1.29s-24.68,7.01-34.8,14.43c-4.76,3.49-9.22,7.92-11.27,13.57-1.92,5.28-.88,11.01,2.55,15.4s8.26,7,13.16,9.07c6.24,2.63,12.82,4.58,19.36,6.3,27,7.1,55.9,8.24,83.07,1.35,6.22-1.58,12.48-3.73,17.66-7.63,4.79-3.61,8.59-8.88,9.59-14.89s-1.07-11.76-5.3-16.1c-4.59-4.69-10.83-7.11-17.04-8.82-14.23-3.92-28.87-6.69-43.47-8.82s-29.5-3.5-44.34-4.02c-3.72-.13-7.43-.21-11.15-.24-1.93-.02-1.93,2.98,0,3,28.33.23,56.61,3.44,84.27,9.6,6.66,1.48,13.54,2.85,19.92,5.32,5.39,2.09,10.63,5.6,13.13,11s1.17,10.96-1.78,15.58c-3.27,5.13-8.61,8.47-14.19,10.62-6,2.31-12.4,3.66-18.72,4.76-6.54,1.14-13.16,1.82-19.79,2.1-13.36.55-26.77-.55-39.88-3.14-6.6-1.3-13.13-2.97-19.54-4.98-5.38-1.69-10.86-3.44-15.77-6.28-4.22-2.45-8.23-5.93-9.4-10.87-1.32-5.58,1.64-10.9,5.37-14.83,4-4.21,9.03-7.33,14.14-10.02,5.39-2.84,11.08-5.08,16.95-6.72,11.63-3.24,23.99-4.12,35.95-2.34,2.94.44,5.85,1.04,8.73,1.78,1.87.48,2.67-2.41.8-2.89h0Z"/>
</svg>